<?xml version="1.0" encoding="UTF-8" standalone="no"?><!-- Generator: Gravit.io --><svg xmlns="http://www.w3.org/2000/svg" xmlns:xlink="http://www.w3.org/1999/xlink" style="isolation:isolate" viewBox="0 0 512 512" width="512pt" height="512pt"><defs><clipPath id="_clipPath_eaGrqVUSwHul6TRvOrpUzTfOe1x0ejsB"><rect width="512" height="512"/></clipPath></defs><g clip-path="url(#_clipPath_eaGrqVUSwHul6TRvOrpUzTfOe1x0ejsB)"><g><path d=" M 313.916 410.667 L 288.584 414.271 L 292.206 439.619 L 317.526 435.978 L 313.916 410.667 Z " fill="rgb(140,198,63)"/></g><g><path d=" M 292.206 439.619 L 266.887 443.214 L 270.479 468.525 L 295.814 464.936 L 292.206 439.619 Z " fill="rgb(140,198,63)"/></g><g><path d=" M 259.48 392.453 L 234.185 396.045 L 248.758 497.449 L 274.083 493.872 L 259.48 392.453 Z " fill="rgb(140,198,63)"/></g><g><path d=" M 336.396 380.738 L 311.058 384.34 L 314.647 409.65 L 339.976 406.043 L 336.396 380.738 Z " fill="rgb(140,198,63)"/></g><g><path d=" M 358.897 350.727 L 333.586 354.311 L 337.188 379.643 L 362.529 376.038 L 358.897 350.727 Z " fill="rgb(140,198,63)"/></g><g><path d=" M 381.416 320.711 L 356.087 324.327 L 359.68 349.65 L 385.003 346.046 L 381.416 320.711 Z " fill="rgb(140,198,63)"/></g><g><path d=" M 403.599 291.103 L 378.288 294.723 L 381.886 320.083 L 407.216 316.451 L 403.599 291.103 Z " fill="rgb(140,198,63)"/></g><g><path d=" M 197.001 322.27 L 171.666 325.872 L 175.286 351.201 L 200.633 347.596 L 197.001 322.27 Z " fill="rgb(140,198,63)"/></g><path d=" M 428.5 287.963 L 424.883 262.649 L 136.337 305.783 L 139.965 331.1 L 428.5 287.963 Z " fill="rgb(140,198,63)"/><g><path d=" M 226.332 343.901 L 201.034 347.545 L 212.557 424.748 L 237.871 421.153 L 226.332 343.901 Z " fill="rgb(140,198,63)"/></g><g><path d=" M 135.478 438.086 L 83.5 445.493 L 90.903 497.483 L 142.893 490.07 L 135.478 438.086 Z " fill="rgb(140,198,63)"/></g><g><path d=" M 183.002 402.748 L 131.036 410.16 L 138.433 462.135 L 190.417 454.738 L 183.002 402.748 Z " fill="rgb(140,198,63)"/></g><g><path d=" M 230.744 369.251 L 178.769 376.73 L 186.172 428.678 L 238.15 421.259 L 230.744 369.251 Z " fill="rgb(140,198,63)"/></g><g><path d=" M 336.726 43.287 L 307.935 57.766 L 293.453 28.999 L 322.22 14.517 L 336.726 43.287 Z " fill="rgb(255,255,255)"/></g><g><path d=" M 198.998 277.856 L 221.805 283.312 L 254.443 185.024 L 327.606 211.06 L 312.666 255.859 L 333.814 265.944 L 359.941 194.266 L 308.794 174.738 L 320.53 141.369 L 369.665 157.495 L 378.874 134.487 L 328.264 116.995 L 343.723 74.936 L 275.661 50.159 L 178.053 95.517 L 187.947 119.377 L 261.762 84.036 L 198.998 277.856 Z " fill="rgb(255,255,255)"/></g></g></svg>