<?xml version="1.0" encoding="UTF-8" standalone="no"?><!-- Generator: Gravit.io --><svg xmlns="http://www.w3.org/2000/svg" xmlns:xlink="http://www.w3.org/1999/xlink" style="isolation:isolate" viewBox="0 0 512 512" width="512pt" height="512pt"><defs><clipPath id="_clipPath_soLwAZJegRMrbGh8kVzI7Vk1HjQBjC5G"><rect width="512" height="512"/></clipPath></defs><g clip-path="url(#_clipPath_soLwAZJegRMrbGh8kVzI7Vk1HjQBjC5G)"><g><path d=" M 311.478 404.156 L 287.212 407.609 L 290.682 431.89 L 314.937 428.402 L 311.478 404.156 Z " fill="rgb(255,255,255)"/></g><g><path d=" M 290.682 431.89 L 266.428 435.334 L 269.869 459.579 L 294.138 456.141 L 290.682 431.89 Z " fill="rgb(255,255,255)"/></g><g><path d=" M 259.334 386.709 L 235.103 390.15 L 249.062 487.286 L 273.322 483.859 L 259.334 386.709 Z " fill="rgb(255,255,255)"/></g><g><path d=" M 333.012 375.488 L 308.74 378.937 L 312.178 403.183 L 336.441 399.727 L 333.012 375.488 Z " fill="rgb(255,255,255)"/></g><g><path d=" M 354.566 346.74 L 330.32 350.173 L 333.77 374.438 L 358.045 370.985 L 354.566 346.74 Z " fill="rgb(255,255,255)"/></g><g><path d=" M 376.137 317.987 L 351.874 321.451 L 355.315 345.708 L 379.572 342.255 L 376.137 317.987 Z " fill="rgb(255,255,255)"/></g><g><path d=" M 397.386 289.626 L 373.141 293.093 L 376.588 317.385 L 400.85 313.906 L 397.386 289.626 Z " fill="rgb(255,255,255)"/></g><g><path d=" M 199.485 319.481 L 175.216 322.931 L 178.683 347.193 L 202.964 343.741 L 199.485 319.481 Z " fill="rgb(255,255,255)"/></g><g><path d=" M 421.239 286.618 L 417.775 262.369 L 141.373 303.687 L 144.85 327.938 L 421.239 286.618 Z " fill="rgb(255,255,255)"/></g><g><path d=" M 227.581 340.201 L 203.347 343.691 L 214.386 417.645 L 238.634 414.201 L 227.581 340.201 Z " fill="rgb(255,255,255)"/></g><g><path d=" M 140.551 430.422 L 90.761 437.516 L 97.853 487.318 L 147.654 480.218 L 140.551 430.422 Z " fill="rgb(255,255,255)"/></g><g><path d=" M 186.074 396.571 L 136.296 403.671 L 143.382 453.458 L 193.178 446.372 L 186.074 396.571 Z " fill="rgb(255,255,255)"/></g><g><path d=" M 231.807 364.484 L 182.02 371.648 L 189.112 421.409 L 238.902 414.303 L 231.807 364.484 Z " fill="rgb(255,255,255)"/></g><g><path d=" M 333.328 52.241 L 305.749 66.11 L 291.877 38.554 L 319.433 24.682 L 333.328 52.241 Z " fill="rgb(255,255,255)"/></g><g><path d=" M 201.397 276.936 L 223.245 282.162 L 254.509 188.011 L 324.592 212.951 L 310.28 255.865 L 330.538 265.526 L 355.565 196.864 L 306.572 178.159 L 317.814 146.194 L 364.881 161.641 L 373.702 139.602 L 325.222 122.846 L 340.031 82.558 L 274.834 58.824 L 181.334 102.272 L 190.812 125.128 L 261.519 91.274 L 201.397 276.936 Z " fill="rgb(255,255,255)"/></g></g></svg>