<?xml version="1.0"?>
<svg xmlns="http://www.w3.org/2000/svg" height="512px" viewBox="0 0 511 512" width="512px" class=""><g><path d="m493.621094 57.371094c9.871094 0 17.898437-8.027344 17.898437-17.894532v-21.578124c0-9.871094-8.027343-17.898438-17.898437-17.898438h-21.578125c-9.867188 0-17.894531 8.027344-17.894531 17.898438v3.289062h-169.453126v-3.289062c0-9.871094-8.027343-17.898438-17.894531-17.898438h-21.582031c-9.867188 0-17.894531 8.027344-17.894531 17.898438v3.289062h-169.453125v-3.289062c0-9.871094-8.027344-17.898438-17.894532-17.898438h-21.578124c-9.871094 0-17.898438 8.027344-17.898438 17.898438v21.578124c0 9.867188 8.027344 17.894532 17.898438 17.894532h2.796874v169.941406h-2.796874c-9.871094 0-17.898438 8.027344-17.898438 17.898438v21.578124c0 9.867188 8.027344 17.898438 17.898438 17.898438h2.796874v169.9375h-2.796874c-9.871094 0-17.898438 8.027344-17.898438 17.898438v21.578124c0 9.871094 8.027344 17.898438 17.898438 17.898438h21.578124c9.867188 0 17.894532-8.027344 17.894532-17.898438v-3.289062h169.453125v3.289062c0 9.871094 8.027343 17.898438 17.894531 17.898438h21.582031c9.867188 0 17.894531-8.027344 17.894531-17.898438v-21.578124c0-9.867188-8.027343-17.894532-17.894531-17.894532h-21.582031c-9.867188 0-17.894531 8.027344-17.894531 17.894532v3.289062h-169.453125v-3.289062c0-9.867188-8.027344-17.894532-17.894532-17.894532h-3.78125v-169.941406h3.78125c9.867188 0 17.894532-8.027344 17.894532-17.898438v-21.578124c0-9.871094-8.027344-17.898438-17.894532-17.898438h-3.78125v-169.941406h3.78125c9.867188 0 17.894532-8.027344 17.894532-17.894532v-3.289062h169.453125v3.289062c0 9.867188 8.027343 17.894532 17.894531 17.894532h21.582031c9.867188 0 17.894531-8.027344 17.894531-17.894532v-3.289062h169.449219v3.289062c0 9.867188 8.03125 17.894532 17.898438 17.894532h3.777343v169.941406h-3.777343c-9.867188 0-17.898438 8.027344-17.898438 17.898438v21.578124c0 9.867188 8.03125 17.898438 17.898438 17.898438h21.578125c9.867187 0 17.898437-8.03125 17.898437-17.898438v-21.578124c0-9.871094-8.03125-17.898438-17.898437-17.898438h-2.800782v-169.941406zm-251.296875 415.152344c0-1.597657 1.296875-2.894532 2.894531-2.894532h21.582031c1.597657 0 2.894531 1.296875 2.894531 2.894532v21.578124c0 1.597657-1.300781 2.898438-2.894531 2.898438h-21.582031c-1.597656 0-2.894531-1.300781-2.894531-2.898438zm-199.453125 0v21.578124c0 1.597657-1.296875 2.898438-2.894532 2.898438h-21.578124c-1.597657 0-2.898438-1.300781-2.898438-2.898438v-21.578124c0-1.597657 1.300781-2.894532 2.898438-2.894532h21.578124c1.597657 0 2.894532 1.296875 2.894532 2.894532zm0-227.3125v21.578124c0 1.597657-1.296875 2.898438-2.894532 2.898438h-21.578124c-1.597657 0-2.898438-1.300781-2.898438-2.898438v-21.578124c0-1.597657 1.300781-2.898438 2.898438-2.898438h21.578124c1.597657 0 2.894532 1.300781 2.894532 2.898438zm0-205.734376c0 1.597657-1.296875 2.894532-2.894532 2.894532h-21.578124c-1.597657 0-2.898438-1.296875-2.898438-2.894532v-21.578124c0-1.597657 1.300781-2.898438 2.898438-2.898438h21.578124c1.597657 0 2.894532 1.300781 2.894532 2.898438zm226.824218 0c0 1.597657-1.296874 2.894532-2.894531 2.894532h-21.582031c-1.597656 0-2.894531-1.296875-2.894531-2.894532v-21.578124c0-1.597657 1.296875-2.898438 2.894531-2.898438h21.582031c1.597657 0 2.894531 1.300781 2.894531 2.898438zm226.824219 205.734376v21.578124c0 1.597657-1.300781 2.898438-2.894531 2.898438h-21.578125c-1.601563 0-2.898437-1.300781-2.898437-2.898438v-21.578124c0-1.597657 1.300781-2.898438 2.898437-2.898438h21.578125c1.59375 0 2.894531 1.300781 2.894531 2.898438zm-27.371093-205.734376v-21.578124c0-1.597657 1.296874-2.898438 2.894531-2.898438h21.578125c1.597656 0 2.898437 1.300781 2.898437 2.898438v21.578124c0 1.597657-1.300781 2.894532-2.898437 2.894532h-21.578125c-1.597657 0-2.894531-1.296875-2.894531-2.894532zm0 0" data-original="#000000" class="active-path" data-old_color="#000000" fill="#FFFFFF"/><path d="m479.777344 382.511719c-6.714844-2.78125-14.367188-1.257813-19.507813 3.878906l-24.421875 24.421875c-2.925781 2.925781-2.925781 7.675781 0 10.605469 2.929688 2.929687 7.679688 2.929687 10.609375 0l24.421875-24.421875c1.1875-1.191406 2.488282-.90625 3.15625-.628906.667969.277343 1.789063.992187 1.789063 2.675781v73.871093c0 1.597657-1.300781 2.898438-2.898438 2.898438h-73.871093c-1.683594 0-2.398438-1.121094-2.675782-1.789062-.277344-.667969-.5625-1.964844.628906-3.15625l26.355469-26.355469c2.925781-2.929688 2.925781-7.675781 0-10.605469-2.929687-2.929688-7.679687-2.929688-10.609375 0l-26.355468 26.355469c-5.136719 5.136719-6.65625 12.792969-3.878907 19.503906 2.78125 6.710937 9.269531 11.046875 16.535157 11.046875h73.871093c9.871094 0 17.898438-8.027344 17.898438-17.898438v-73.871093c0-7.261719-4.335938-13.753907-11.046875-16.53125zm0 0" data-original="#000000" class="active-path" data-old_color="#000000" fill="#FFFFFF"/><path d="m107.957031 103.414062h190.308594c4.144531 0 7.5-3.355468 7.5-7.5 0-4.140624-3.355469-7.5-7.5-7.5h-190.308594c-9.648437 0-17.5 7.851563-17.5 17.5l-.007812 57.859376c0 4.671874 1.820312 9.070312 5.125 12.375 3.304687 3.304687 7.699219 5.125 12.375 5.125h25.363281c9.652344 0 17.5-7.851563 17.5-17.5v-11.5625h75.019531v211.007812h-56.777343c-9.648438 0-17.5 7.851562-17.5 17.5v25.367188c0 9.648437 7.851562 17.5 17.5 17.5h70.714843c4.140625 0 7.5-3.359376 7.5-7.5 0-4.144532-3.359375-7.5-7.5-7.5h-70.714843c-1.378907 0-2.5-1.121094-2.5-2.5v-25.367188c0-1.378906 1.121093-2.5 2.5-2.5h64.277343c4.140625 0 7.5-3.359375 7.5-7.5v-226.007812c0-4.144532-3.359375-7.5-7.5-7.5h-90.019531c-4.140625 0-7.5 3.355468-7.5 7.5v19.0625c0 1.378906-1.121094 2.5-2.5 2.5h-25.363281c-.902344 0-1.496094-.457032-1.769531-.730469-.273438-.273438-.730469-.867188-.730469-1.769531l.007812-57.859376c0-1.378906 1.121094-2.5 2.5-2.5zm0 0" data-original="#000000" class="active-path" data-old_color="#000000" fill="#FFFFFF"/><path d="m342.972656 363.21875h-56.773437v-211.007812h75.007812v11.5625c0 9.648437 7.851563 17.5 17.5 17.5h25.367188c9.648437 0 17.5-7.851563 17.5-17.5v-57.859376c0-9.648437-7.851563-17.5-17.5-17.5h-73.144531c-4.144532 0-7.5 3.359376-7.5 7.5 0 4.140626 3.355468 7.5 7.5 7.5h73.144531c1.378906 0 2.5 1.121094 2.5 2.5v57.859376c0 1.378906-1.121094 2.5-2.5 2.5h-25.367188c-1.378906 0-2.5-1.121094-2.5-2.5v-19.0625c0-4.144532-3.355469-7.5-7.5-7.5h-90.007812c-4.144531 0-7.5 3.355468-7.5 7.5v226.007812c0 4.140625 3.355469 7.5 7.5 7.5h64.273437c1.378906 0 2.5 1.121094 2.5 2.5v25.367188c0 1.378906-1.121094 2.5-2.5 2.5h-70.542968c-4.140626 0-7.5 3.355468-7.5 7.5 0 4.140624 3.359374 7.5 7.5 7.5h70.542968c9.648438 0 17.5-7.851563 17.5-17.5v-25.367188c0-9.648438-7.851562-17.5-17.5-17.5zm0 0" data-original="#000000" class="active-path" data-old_color="#000000" fill="#FFFFFF"/><path d="m313.226562 291.445312h5.175782c4.140625 0 7.5-3.355468 7.5-7.5 0-4.140624-3.359375-7.5-7.5-7.5h-5.175782c-4.144531 0-7.5 3.359376-7.5 7.5 0 4.144532 3.355469 7.5 7.5 7.5zm0 0" data-original="#000000" class="active-path" data-old_color="#000000" fill="#FFFFFF"/><path d="m380.765625 276.445312h-42.351563c-4.140624 0-7.5 3.359376-7.5 7.5 0 4.144532 3.359376 7.5 7.5 7.5h42.351563c4.144531 0 7.5-3.355468 7.5-7.5 0-4.140624-3.355469-7.5-7.5-7.5zm0 0" data-original="#000000" class="active-path" data-old_color="#000000" fill="#FFFFFF"/><path d="m313.226562 316.445312h67.539063c4.144531 0 7.5-3.355468 7.5-7.5 0-4.140624-3.355469-7.5-7.5-7.5h-67.539063c-4.144531 0-7.5 3.359376-7.5 7.5 0 4.144532 3.355469 7.5 7.5 7.5zm0 0" data-original="#000000" class="active-path" data-old_color="#000000" fill="#FFFFFF"/><path d="m388.265625 333.945312c0-4.140624-3.355469-7.5-7.5-7.5h-67.539063c-4.144531 0-7.5 3.359376-7.5 7.5 0 4.144532 3.355469 7.5 7.5 7.5h67.539063c4.144531 0 7.5-3.355468 7.5-7.5zm0 0" data-original="#000000" class="active-path" data-old_color="#000000" fill="#FFFFFF"/></g> </svg>
