<?xml version="1.0" standalone="no"?><!-- Generator: Gravit.io --><svg xmlns="http://www.w3.org/2000/svg" xmlns:xlink="http://www.w3.org/1999/xlink" style="isolation:isolate" viewBox="0 0 24 28" width="24" height="28"><defs><clipPath id="_clipPath_YWzfChjkkdkB5ccTXIt4WNmdy6xpqFDG"><rect width="24" height="28"/></clipPath></defs><g clip-path="url(#_clipPath_YWzfChjkkdkB5ccTXIt4WNmdy6xpqFDG)"><path d=" M 22.923 7.229 C 22.12 7.586 21.255 7.826 20.349 7.936 C 21.284 7.374 21.984 6.493 22.319 5.455 C 21.439 5.977 20.476 6.345 19.472 6.542 C 18.085 5.06 15.874 4.696 14.085 5.654 C 12.295 6.613 11.373 8.655 11.837 10.631 C 8.233 10.449 4.876 8.746 2.601 5.945 C 2.201 6.63 1.992 7.41 1.994 8.203 C 1.994 9.756 2.784 11.127 3.988 11.93 C 3.276 11.909 2.579 11.717 1.957 11.37 L 1.957 11.427 C 1.957 13.56 3.46 15.398 5.551 15.822 C 5.166 15.926 4.769 15.979 4.371 15.978 C 4.081 15.978 3.801 15.951 3.528 15.898 C 4.114 17.723 5.795 18.973 7.712 19.009 C 6.125 20.256 4.164 20.931 2.146 20.926 C 1.784 20.926 1.429 20.906 1.079 20.866 C 3.129 22.182 5.513 22.88 7.948 22.877 C 16.191 22.877 20.699 16.048 20.699 10.13 C 20.699 9.934 20.696 9.74 20.685 9.546 C 21.565 8.915 22.323 8.13 22.923 7.229 Z " fill="rgb(0,0,0)"/></g></svg>