<?xml version="1.0" encoding="UTF-8" standalone="no"?><!-- Generator: Gravit.io --><svg xmlns="http://www.w3.org/2000/svg" xmlns:xlink="http://www.w3.org/1999/xlink" style="isolation:isolate" viewBox="0 0 1000 950" width="1000pt" height="950pt"><defs><clipPath id="_clipPath_wxuz31pZhVMfXH8Wsqi0wXYIAfixv8zK"><rect width="1000" height="950"/></clipPath></defs><g clip-path="url(#_clipPath_wxuz31pZhVMfXH8Wsqi0wXYIAfixv8zK)"><defs><linearGradient id="_lgradient_16" x1="0.1464466094067262" y1="0.14644660940672627" x2="0.8535533905932737" y2="0.8535533905932737"><stop offset="0%" style="stop-color:#1EF5FE"/><stop offset="97.82608695652173%" style="stop-color:#2398E7"/></linearGradient></defs><path d="M 667.775 -297.862 L 1191.189 68.637 C 1241.938 104.172 1254.29 174.224 1218.755 224.973 L 852.256 748.387 C 816.721 799.136 746.67 811.488 695.92 775.953 L 172.506 409.455 C 121.757 373.92 109.405 303.868 144.94 253.119 L 511.439 -270.296 C 546.973 -321.045 617.025 -333.397 667.775 -297.862 Z" style="stroke:none;fill:url(#_lgradient_16);stroke-miterlimit:10;"/><g opacity="0.21"><path d=" M 284.151 326.635 L 226 146 L 446 164 L 675.435 69 L 967.544 480.753 L 660 190 L 481.247 346.139 L 284.151 326.635 Z " fill="rgb(255,255,255)"/></g><g opacity="0.36"><path d=" M 810 394.447 L 907 448 L 858 601 L 901 651 L 798 601 L 818.641 448 L 810 394.447 Z " fill="rgb(255,255,255)"/></g><linearGradient id="_lgradient_17" x1="0.1464466094067262" y1="0.14644660940672627" x2="0.6360738706892786" y2="0.6804197860921603" gradientTransform="matrix(341.002,91.371,-100.727,375.919,853.558,-38.058)" gradientUnits="userSpaceOnUse"><stop offset="0%" stop-opacity="1" style="stop-color:rgb(255,83,149)"/><stop offset="97.3913043478261%" stop-opacity="1" style="stop-color:rgb(208,4,86)"/></linearGradient><path d=" M 1072.322 242.817 L 967.544 280.329 L 862.767 317.84 C 819.142 333.459 790.451 309.126 798.738 263.536 L 818.641 154.04 L 838.543 44.544 C 846.83 -1.045 882.248 -13.725 917.586 16.246 L 1002.461 88.23 L 1087.336 160.214 C 1122.675 190.186 1115.947 227.198 1072.322 242.817 Z " fill="url(#_lgradient_17)"/><defs><linearGradient id="_lgradient_18" x1="0.1464466094067262" y1="0.14644660940672627" x2="0.8535533905932737" y2="0.8535533905932737"><stop offset="1.3043478260869565%" style="stop-color:#FA7F03"/><stop offset="100%" style="stop-color:#DC2B09"/></linearGradient></defs><path d="M 670.993 318.257 L 838.912 435.835 C 864.449 453.716 870.665 488.967 852.783 514.504 L 577.01 908.349 C 559.129 933.886 523.878 940.102 498.341 922.22 L 330.422 804.642 C 304.884 786.761 298.669 751.51 316.55 725.973 L 592.323 332.128 C 610.205 306.591 645.455 300.375 670.993 318.257 Z" style="stroke:none;fill:url(#_lgradient_18);stroke-miterlimit:10;"/><path d=" M 675.435 228 C 680.539 228 684.682 232.143 684.682 237.247 C 684.682 242.351 680.539 246.494 675.435 246.494 C 670.332 246.494 666.188 242.351 666.188 237.247 C 666.188 232.143 670.332 228 675.435 228 L 675.435 228 L 675.435 228 L 675.435 228 L 675.435 228 L 675.435 228 L 675.435 228 L 675.435 228 L 675.435 228 L 675.435 228 L 675.435 228 L 675.435 228 L 675.435 228 L 675.435 228 L 675.435 228 L 675.435 228 L 675.435 228 L 675.435 228 Z  M 675.435 277.318 C 680.539 277.318 684.682 281.461 684.682 286.565 C 684.682 291.668 680.539 295.812 675.435 295.812 C 670.332 295.812 666.188 291.668 666.188 286.565 C 666.188 281.461 670.332 277.318 675.435 277.318 L 675.435 277.318 L 675.435 277.318 L 675.435 277.318 L 675.435 277.318 L 675.435 277.318 L 675.435 277.318 L 675.435 277.318 L 675.435 277.318 L 675.435 277.318 L 675.435 277.318 L 675.435 277.318 L 675.435 277.318 L 675.435 277.318 L 675.435 277.318 L 675.435 277.318 L 675.435 277.318 L 675.435 277.318 Z  M 675.435 326.635 C 680.539 326.635 684.682 330.779 684.682 335.882 C 684.682 340.986 680.539 345.129 675.435 345.129 C 670.332 345.129 666.188 340.986 666.188 335.882 C 666.188 330.779 670.332 326.635 675.435 326.635 L 675.435 326.635 L 675.435 326.635 L 675.435 326.635 L 675.435 326.635 L 675.435 326.635 L 675.435 326.635 L 675.435 326.635 L 675.435 326.635 L 675.435 326.635 L 675.435 326.635 L 675.435 326.635 L 675.435 326.635 L 675.435 326.635 L 675.435 326.635 L 675.435 326.635 L 675.435 326.635 Z  M 675.435 375.953 C 680.539 375.953 684.682 380.096 684.682 385.2 C 684.682 390.304 680.539 394.447 675.435 394.447 C 670.332 394.447 666.188 390.304 666.188 385.2 C 666.188 380.096 670.332 375.953 675.435 375.953 L 675.435 375.953 L 675.435 375.953 L 675.435 375.953 L 675.435 375.953 L 675.435 375.953 L 675.435 375.953 L 675.435 375.953 L 675.435 375.953 L 675.435 375.953 L 675.435 375.953 L 675.435 375.953 L 675.435 375.953 L 675.435 375.953 L 675.435 375.953 L 675.435 375.953 Z  M 626.118 228 C 631.221 228 635.365 232.143 635.365 237.247 C 635.365 242.351 631.221 246.494 626.118 246.494 C 621.014 246.494 616.871 242.351 616.871 237.247 C 616.871 232.143 621.014 228 626.118 228 L 626.118 228 L 626.118 228 L 626.118 228 L 626.118 228 L 626.118 228 L 626.118 228 L 626.118 228 L 626.118 228 L 626.118 228 L 626.118 228 L 626.118 228 L 626.118 228 L 626.118 228 L 626.118 228 Z  M 626.118 277.318 C 631.221 277.318 635.365 281.461 635.365 286.565 C 635.365 291.668 631.221 295.812 626.118 295.812 C 621.014 295.812 616.871 291.668 616.871 286.565 C 616.871 281.461 621.014 277.318 626.118 277.318 L 626.118 277.318 L 626.118 277.318 L 626.118 277.318 L 626.118 277.318 L 626.118 277.318 L 626.118 277.318 L 626.118 277.318 L 626.118 277.318 L 626.118 277.318 L 626.118 277.318 L 626.118 277.318 L 626.118 277.318 L 626.118 277.318 Z  M 626.118 326.635 C 631.221 326.635 635.365 330.779 635.365 335.882 C 635.365 340.986 631.221 345.129 626.118 345.129 C 621.014 345.129 616.871 340.986 616.871 335.882 C 616.871 330.779 621.014 326.635 626.118 326.635 L 626.118 326.635 L 626.118 326.635 L 626.118 326.635 L 626.118 326.635 L 626.118 326.635 L 626.118 326.635 L 626.118 326.635 L 626.118 326.635 L 626.118 326.635 L 626.118 326.635 L 626.118 326.635 L 626.118 326.635 Z  M 626.118 375.953 C 631.221 375.953 635.365 380.096 635.365 385.2 C 635.365 390.304 631.221 394.447 626.118 394.447 C 621.014 394.447 616.871 390.304 616.871 385.2 C 616.871 380.096 621.014 375.953 626.118 375.953 L 626.118 375.953 L 626.118 375.953 L 626.118 375.953 L 626.118 375.953 L 626.118 375.953 L 626.118 375.953 L 626.118 375.953 L 626.118 375.953 L 626.118 375.953 L 626.118 375.953 L 626.118 375.953 Z  M 576.8 228 C 581.904 228 586.047 232.143 586.047 237.247 C 586.047 242.351 581.904 246.494 576.8 246.494 C 571.696 246.494 567.553 242.351 567.553 237.247 C 567.553 232.143 571.696 228 576.8 228 L 576.8 228 L 576.8 228 L 576.8 228 L 576.8 228 L 576.8 228 L 576.8 228 L 576.8 228 L 576.8 228 L 576.8 228 L 576.8 228 Z  M 576.8 277.318 C 581.904 277.318 586.047 281.461 586.047 286.565 C 586.047 291.668 581.904 295.812 576.8 295.812 C 571.696 295.812 567.553 291.668 567.553 286.565 C 567.553 281.461 571.696 277.318 576.8 277.318 L 576.8 277.318 L 576.8 277.318 L 576.8 277.318 L 576.8 277.318 L 576.8 277.318 L 576.8 277.318 L 576.8 277.318 L 576.8 277.318 L 576.8 277.318 Z  M 576.8 326.635 C 581.904 326.635 586.047 330.779 586.047 335.882 C 586.047 340.986 581.904 345.129 576.8 345.129 C 571.696 345.129 567.553 340.986 567.553 335.882 C 567.553 330.779 571.696 326.635 576.8 326.635 L 576.8 326.635 L 576.8 326.635 L 576.8 326.635 L 576.8 326.635 L 576.8 326.635 L 576.8 326.635 L 576.8 326.635 L 576.8 326.635 Z  M 576.8 375.953 C 581.904 375.953 586.047 380.096 586.047 385.2 C 586.047 390.304 581.904 394.447 576.8 394.447 C 571.696 394.447 567.553 390.304 567.553 385.2 C 567.553 380.096 571.696 375.953 576.8 375.953 L 576.8 375.953 L 576.8 375.953 L 576.8 375.953 L 576.8 375.953 L 576.8 375.953 L 576.8 375.953 L 576.8 375.953 Z  M 724.753 228 C 729.857 228 734 232.143 734 237.247 C 734 242.351 729.857 246.494 724.753 246.494 C 719.649 246.494 715.506 242.351 715.506 237.247 C 715.506 232.143 719.649 228 724.753 228 L 724.753 228 L 724.753 228 L 724.753 228 L 724.753 228 L 724.753 228 L 724.753 228 Z  M 724.753 277.318 C 729.857 277.318 734 281.461 734 286.565 C 734 291.668 729.857 295.812 724.753 295.812 C 719.649 295.812 715.506 291.668 715.506 286.565 C 715.506 281.461 719.649 277.318 724.753 277.318 L 724.753 277.318 L 724.753 277.318 L 724.753 277.318 L 724.753 277.318 L 724.753 277.318 Z  M 724.753 326.635 C 729.857 326.635 734 330.779 734 335.882 C 734 340.986 729.857 345.129 724.753 345.129 C 719.649 345.129 715.506 340.986 715.506 335.882 C 715.506 330.779 719.649 326.635 724.753 326.635 L 724.753 326.635 L 724.753 326.635 L 724.753 326.635 L 724.753 326.635 Z  M 724.753 375.953 C 729.857 375.953 734 380.096 734 385.2 C 734 390.304 729.857 394.447 724.753 394.447 C 719.649 394.447 715.506 390.304 715.506 385.2 C 715.506 380.096 719.649 375.953 724.753 375.953 L 724.753 375.953 L 724.753 375.953 L 724.753 375.953 Z  M 675.435 422.188 C 680.539 422.188 684.682 426.332 684.682 431.435 C 684.682 436.539 680.539 440.682 675.435 440.682 C 670.332 440.682 666.188 436.539 666.188 431.435 C 666.188 426.332 670.332 422.188 675.435 422.188 L 675.435 422.188 L 675.435 422.188 L 675.435 422.188 L 675.435 422.188 L 675.435 422.188 L 675.435 422.188 L 675.435 422.188 L 675.435 422.188 L 675.435 422.188 L 675.435 422.188 L 675.435 422.188 L 675.435 422.188 L 675.435 422.188 L 675.435 422.188 L 675.435 422.188 L 675.435 422.188 L 675.435 422.188 Z  M 675.435 471.506 C 680.539 471.506 684.682 475.649 684.682 480.753 C 684.682 485.857 680.539 490 675.435 490 C 670.332 490 666.188 485.857 666.188 480.753 C 666.188 475.649 670.332 471.506 675.435 471.506 L 675.435 471.506 L 675.435 471.506 L 675.435 471.506 L 675.435 471.506 L 675.435 471.506 L 675.435 471.506 L 675.435 471.506 L 675.435 471.506 L 675.435 471.506 L 675.435 471.506 L 675.435 471.506 L 675.435 471.506 L 675.435 471.506 L 675.435 471.506 L 675.435 471.506 L 675.435 471.506 L 675.435 471.506 Z  M 626.118 422.188 C 631.221 422.188 635.365 426.332 635.365 431.435 C 635.365 436.539 631.221 440.682 626.118 440.682 C 621.014 440.682 616.871 436.539 616.871 431.435 C 616.871 426.332 621.014 422.188 626.118 422.188 L 626.118 422.188 L 626.118 422.188 L 626.118 422.188 L 626.118 422.188 L 626.118 422.188 L 626.118 422.188 L 626.118 422.188 L 626.118 422.188 L 626.118 422.188 L 626.118 422.188 L 626.118 422.188 L 626.118 422.188 L 626.118 422.188 L 626.118 422.188 Z  M 626.118 471.506 C 631.221 471.506 635.365 475.649 635.365 480.753 C 635.365 485.857 631.221 490 626.118 490 C 621.014 490 616.871 485.857 616.871 480.753 C 616.871 475.649 621.014 471.506 626.118 471.506 L 626.118 471.506 L 626.118 471.506 L 626.118 471.506 L 626.118 471.506 L 626.118 471.506 L 626.118 471.506 L 626.118 471.506 L 626.118 471.506 L 626.118 471.506 L 626.118 471.506 L 626.118 471.506 L 626.118 471.506 L 626.118 471.506 Z  M 576.8 422.188 C 581.904 422.188 586.047 426.332 586.047 431.435 C 586.047 436.539 581.904 440.682 576.8 440.682 C 571.696 440.682 567.553 436.539 567.553 431.435 C 567.553 426.332 571.696 422.188 576.8 422.188 L 576.8 422.188 L 576.8 422.188 L 576.8 422.188 L 576.8 422.188 L 576.8 422.188 L 576.8 422.188 L 576.8 422.188 L 576.8 422.188 L 576.8 422.188 L 576.8 422.188 Z  M 576.8 471.506 C 581.904 471.506 586.047 475.649 586.047 480.753 C 586.047 485.857 581.904 490 576.8 490 C 571.696 490 567.553 485.857 567.553 480.753 C 567.553 475.649 571.696 471.506 576.8 471.506 L 576.8 471.506 L 576.8 471.506 L 576.8 471.506 L 576.8 471.506 L 576.8 471.506 L 576.8 471.506 L 576.8 471.506 L 576.8 471.506 L 576.8 471.506 Z  M 724.753 422.188 C 729.857 422.188 734 426.332 734 431.435 C 734 436.539 729.857 440.682 724.753 440.682 C 719.649 440.682 715.506 436.539 715.506 431.435 C 715.506 426.332 719.649 422.188 724.753 422.188 L 724.753 422.188 L 724.753 422.188 L 724.753 422.188 L 724.753 422.188 L 724.753 422.188 L 724.753 422.188 Z  M 724.753 471.506 C 729.857 471.506 734 475.649 734 480.753 C 734 485.857 729.857 490 724.753 490 C 719.649 490 715.506 485.857 715.506 480.753 C 715.506 475.649 719.649 471.506 724.753 471.506 L 724.753 471.506 L 724.753 471.506 L 724.753 471.506 L 724.753 471.506 L 724.753 471.506 Z  M 481.247 228 C 486.351 228 490.494 232.143 490.494 237.247 C 490.494 242.351 486.351 246.494 481.247 246.494 C 476.143 246.494 472 242.351 472 237.247 C 472 232.143 476.143 228 481.247 228 L 481.247 228 L 481.247 228 L 481.247 228 L 481.247 228 L 481.247 228 L 481.247 228 L 481.247 228 L 481.247 228 L 481.247 228 L 481.247 228 L 481.247 228 L 481.247 228 L 481.247 228 L 481.247 228 L 481.247 228 L 481.247 228 Z  M 481.247 277.318 C 486.351 277.318 490.494 281.461 490.494 286.565 C 490.494 291.668 486.351 295.812 481.247 295.812 C 476.143 295.812 472 291.668 472 286.565 C 472 281.461 476.143 277.318 481.247 277.318 L 481.247 277.318 L 481.247 277.318 L 481.247 277.318 L 481.247 277.318 L 481.247 277.318 L 481.247 277.318 L 481.247 277.318 L 481.247 277.318 L 481.247 277.318 L 481.247 277.318 L 481.247 277.318 L 481.247 277.318 L 481.247 277.318 L 481.247 277.318 L 481.247 277.318 L 481.247 277.318 Z  M 481.247 326.635 C 486.351 326.635 490.494 330.779 490.494 335.882 C 490.494 340.986 486.351 345.129 481.247 345.129 C 476.143 345.129 472 340.986 472 335.882 C 472 330.779 476.143 326.635 481.247 326.635 L 481.247 326.635 L 481.247 326.635 L 481.247 326.635 L 481.247 326.635 L 481.247 326.635 L 481.247 326.635 L 481.247 326.635 L 481.247 326.635 L 481.247 326.635 L 481.247 326.635 L 481.247 326.635 L 481.247 326.635 L 481.247 326.635 L 481.247 326.635 L 481.247 326.635 Z  M 481.247 375.953 C 486.351 375.953 490.494 380.096 490.494 385.2 C 490.494 390.304 486.351 394.447 481.247 394.447 C 476.143 394.447 472 390.304 472 385.2 C 472 380.096 476.143 375.953 481.247 375.953 L 481.247 375.953 L 481.247 375.953 L 481.247 375.953 L 481.247 375.953 L 481.247 375.953 L 481.247 375.953 L 481.247 375.953 L 481.247 375.953 L 481.247 375.953 L 481.247 375.953 L 481.247 375.953 L 481.247 375.953 L 481.247 375.953 L 481.247 375.953 Z  M 530.565 228 C 535.668 228 539.812 232.143 539.812 237.247 C 539.812 242.351 535.668 246.494 530.565 246.494 C 525.461 246.494 521.318 242.351 521.318 237.247 C 521.318 232.143 525.461 228 530.565 228 L 530.565 228 L 530.565 228 L 530.565 228 L 530.565 228 L 530.565 228 Z  M 530.565 277.318 C 535.668 277.318 539.812 281.461 539.812 286.565 C 539.812 291.668 535.668 295.812 530.565 295.812 C 525.461 295.812 521.318 291.668 521.318 286.565 C 521.318 281.461 525.461 277.318 530.565 277.318 L 530.565 277.318 L 530.565 277.318 L 530.565 277.318 L 530.565 277.318 Z  M 530.565 326.635 C 535.668 326.635 539.812 330.779 539.812 335.882 C 539.812 340.986 535.668 345.129 530.565 345.129 C 525.461 345.129 521.318 340.986 521.318 335.882 C 521.318 330.779 525.461 326.635 530.565 326.635 L 530.565 326.635 L 530.565 326.635 L 530.565 326.635 Z  M 530.565 375.953 C 535.668 375.953 539.812 380.096 539.812 385.2 C 539.812 390.304 535.668 394.447 530.565 394.447 C 525.461 394.447 521.318 390.304 521.318 385.2 C 521.318 380.096 525.461 375.953 530.565 375.953 L 530.565 375.953 L 530.565 375.953 Z  M 481.247 422.188 C 486.351 422.188 490.494 426.332 490.494 431.435 C 490.494 436.539 486.351 440.682 481.247 440.682 C 476.143 440.682 472 436.539 472 431.435 C 472 426.332 476.143 422.188 481.247 422.188 L 481.247 422.188 L 481.247 422.188 L 481.247 422.188 L 481.247 422.188 L 481.247 422.188 L 481.247 422.188 L 481.247 422.188 L 481.247 422.188 L 481.247 422.188 L 481.247 422.188 L 481.247 422.188 L 481.247 422.188 L 481.247 422.188 L 481.247 422.188 L 481.247 422.188 Z  M 481.247 471.506 C 486.351 471.506 490.494 475.649 490.494 480.753 C 490.494 485.857 486.351 490 481.247 490 C 476.143 490 472 485.857 472 480.753 C 472 475.649 476.143 471.506 481.247 471.506 L 481.247 471.506 L 481.247 471.506 L 481.247 471.506 L 481.247 471.506 L 481.247 471.506 L 481.247 471.506 L 481.247 471.506 L 481.247 471.506 L 481.247 471.506 L 481.247 471.506 L 481.247 471.506 L 481.247 471.506 L 481.247 471.506 L 481.247 471.506 L 481.247 471.506 Z  M 530.565 422.188 C 535.668 422.188 539.812 426.332 539.812 431.435 C 539.812 436.539 535.668 440.682 530.565 440.682 C 525.461 440.682 521.318 436.539 521.318 431.435 C 521.318 426.332 525.461 422.188 530.565 422.188 L 530.565 422.188 L 530.565 422.188 L 530.565 422.188 L 530.565 422.188 Z  M 530.565 471.506 C 535.668 471.506 539.812 475.649 539.812 480.753 C 539.812 485.857 535.668 490 530.565 490 C 525.461 490 521.318 485.857 521.318 480.753 C 521.318 475.649 525.461 471.506 530.565 471.506 L 530.565 471.506 L 530.565 471.506 L 530.565 471.506 Z " fill-rule="evenodd" fill="rgb(255,255,255)" fill-opacity="0.77"/><linearGradient id="_lgradient_19" x1="0.4999999999999999" y1="0" x2="0.49999999999999994" y2="1" gradientTransform="matrix(308.727,0,0,308.727,595,623.58)" gradientUnits="userSpaceOnUse"><stop offset="0%" stop-opacity="1" style="stop-color:rgb(196,110,229)"/><stop offset="100%" stop-opacity="1" style="stop-color:rgb(121,20,103)"/></linearGradient><circle vector-effect="non-scaling-stroke" cx="749.3634895641896" cy="777.9437376982629" r="154.36348956418965" fill="url(#_lgradient_19)"/><clipPath id="_clipPath_gtdx6x4xzjbSBhUqj7utrMK0dkWTwMEt"><circle vector-effect="non-scaling-stroke" cx="749.3634895641896" cy="777.9437376982629" r="154.36348956418965" fill="url(#_lgradient_19)"/></clipPath><g clip-path="url(#_clipPath_gtdx6x4xzjbSBhUqj7utrMK0dkWTwMEt)"><g opacity="0.17"><path d=" M 768.521 720.932 L 766.695 614.998 L 814 711 L 909.533 812.165 L 747 950 L 747 902.686 L 834.792 782.444 L 768.521 720.932 Z " fill="rgb(255,255,255)"/></g></g><g opacity="0.21"><path d=" M 597.365 471.565 L 626.412 375.953 L 635.365 502.389 L 512.365 644.883 L 617.165 690.883 L 494.365 814.883 L 521.612 726.883 L 432.365 667.883 L 486.365 570.883 L 597.365 471.565 Z " fill="rgb(255,255,255)"/></g><g opacity="0.12"><path d=" M 848 52 L 954 58 L 875 219 L 907 263 L 818.641 219 L 875 108 L 848 52 Z " fill="rgb(255,255,255)"/></g></g></svg>