<?xml version="1.0" encoding="UTF-8" standalone="no"?><!-- Generator: Gravit.io --><svg xmlns="http://www.w3.org/2000/svg" xmlns:xlink="http://www.w3.org/1999/xlink" style="isolation:isolate" viewBox="0 0 512 512" width="512pt" height="512pt"><defs><clipPath id="_clipPath_STXLkLnTVygZBlu70WejTAturwLTN0Uz"><rect width="512" height="512"/></clipPath></defs><g clip-path="url(#_clipPath_STXLkLnTVygZBlu70WejTAturwLTN0Uz)"><path d=" M 172.705 437.298 L 466.868 437.298 C 477.417 437.298 481.569 430.179 476.133 421.41 L 265.262 81.272 C 259.826 72.504 251.016 72.514 245.601 81.294 L 35.85 421.389 L 35.85 421.389 C 30.435 430.169 34.603 437.298 45.153 437.298 L 108.44 437.298 C 116.652 437.298 126.823 431.626 131.14 424.641 L 252.675 227.964 C 254.407 225.157 257.223 225.154 258.961 227.957 L 334.276 349.371 C 336.013 352.174 334.686 354.45 331.314 354.45 L 223.073 354.123 C 217.028 354.105 209.437 358.201 206.134 363.264 L 165.957 424.837 C 161.469 431.714 164.493 437.298 172.705 437.298 Z " fill="rgb(255,255,255)"/></g></svg>