<?xml version="1.0" encoding="UTF-8" standalone="no"?><!-- Generator: Gravit.io --><svg xmlns="http://www.w3.org/2000/svg" xmlns:xlink="http://www.w3.org/1999/xlink" style="isolation:isolate" viewBox="0 0 512 512" width="512pt" height="512pt"><defs><clipPath id="_clipPath_Lpp8Tds1zA6zsMVZjqotkmXN96yu97ud"><rect width="512" height="512"/></clipPath></defs><g clip-path="url(#_clipPath_Lpp8Tds1zA6zsMVZjqotkmXN96yu97ud)"><g><path d=" M 90.405 412.299 C 97.714 397.902 100.917 374.15 99.986 341.014 C 60.178 249.644 116.243 203.37 153.641 304.751 L 198.668 315.968 C 202.172 224.424 223.56 179.89 268.54 182.337 C 291.717 190.347 338.39 191.24 408.501 184.957 C 434.02 179.79 442.014 192.323 432.454 222.526 C 464.988 224.615 480.328 187.376 478.444 110.781 C 474.636 121.993 469.536 127.782 463.114 128.121 C 470.189 100.933 467.005 78.144 453.533 59.726 C 458.132 78.226 454.948 95.254 443.952 110.781 C 444.982 52.742 426.148 15.824 387.422 0 C 387.042 23.133 380.664 43.052 368.26 59.726 C 375.176 43.266 377.421 28.825 374.967 16.376 C 359.907 32.015 341.073 44.227 318.438 52.982 C 331.05 38.47 337.766 26.277 338.558 16.376 C 293.929 44.94 258.488 50.408 216.877 46.239 C 161.176 45.93 111.363 74.518 82.74 118.488 L 82.74 98.258 C 14.488 178.563 17.052 283.253 90.405 412.299 L 90.405 412.299 L 90.405 412.299 Z  M 472.719 272.36 C 470.092 260.569 387.435 259.983 360.409 279.75 C 346.146 327.953 353.057 380.06 426.277 369.955 C 451.676 360.707 483.846 318.605 472.719 272.36 L 472.719 272.36 L 472.719 272.36 Z  M 277.129 435.36 C 296.464 428.962 315.21 410.37 328.835 402.143 C 342.461 393.916 361.957 409.188 346.165 425.121 C 330.373 441.053 310.718 438.682 277.129 435.36 L 277.129 435.36 L 277.129 435.36 Z  M 432.771 441.779 C 416.475 433.572 391.773 422.586 378.809 405.012 C 365.845 387.438 345.581 411.446 360.726 425.121 C 375.872 438.795 398.768 440.713 432.771 441.779 L 432.771 441.779 L 432.771 441.779 Z  M 335.705 471.537 C 346.303 460.302 359.004 460.312 373.78 471.537 C 368.141 482.632 373.19 495.402 388.899 509.818 C 352.999 509.678 335.278 496.927 335.705 471.537 L 335.705 471.537 L 335.705 471.537 Z  M 241.91 286.508 C 243.876 275.609 302.846 268.236 323.064 286.508 C 333.735 331.066 312.694 372.785 257.916 363.444 C 238.915 354.895 233.586 329.257 241.91 286.508 L 241.91 286.508 Z  M 221.261 276.987 C 224.19 262.684 312.054 253.009 342.179 276.987 C 358.078 335.46 326.726 390.205 245.11 377.947 C 216.798 366.73 208.858 333.086 221.261 276.987 L 221.261 276.987 L 221.261 276.987 Z  M 448.534 282.334 C 446.771 273.349 397.673 272.366 379.535 287.429 C 369.961 324.162 370.228 358.553 419.37 350.852 C 436.416 343.805 456.002 317.575 448.534 282.334 Z " fill-rule="evenodd" fill="rgb(0,0,0)"/></g></g></svg>