<?xml version="1.0" encoding="UTF-8" standalone="no"?><!-- Generator: Gravit.io --><svg xmlns="http://www.w3.org/2000/svg" xmlns:xlink="http://www.w3.org/1999/xlink" style="isolation:isolate" viewBox="0 0 300 300" width="300pt" height="300pt"><defs><clipPath id="_clipPath_SuZetcFlQlYCIXG6h9xzpvjC8O6C5igZ"><rect width="300" height="300"/></clipPath></defs><g clip-path="url(#_clipPath_SuZetcFlQlYCIXG6h9xzpvjC8O6C5igZ)"><rect width="300" height="300" style="fill:rgb(24,131,253)" fill-opacity="0"/><g opacity="0.21"><path d=" M 34.349 119.377 L 12.836 52.553 L 94.223 59.212 L 179.101 24.068 L 287.164 176.392 L 173.391 68.83 L 107.263 126.592 L 34.349 119.377 Z " fill="rgb(255,255,255)"/></g><g opacity="0.36"><path d=" M 228.882 144.464 L 264.766 164.275 L 246.639 220.876 L 262.546 239.373 L 224.442 220.876 L 232.078 164.275 L 228.882 144.464 Z " fill="rgb(255,255,255)"/></g><g opacity="0.43"><path d=" M 168.037 171.372 L 210.707 138.966 L 174.856 196.705 L 76.637 219.947 L 107.705 272.869 L 15.385 288.14 L 54.881 258.476 L 34.654 204.794 L 88.6 179.629 L 168.037 171.372 Z " fill="rgb(255,255,255)"/></g><g opacity="0.12"><path d=" M 242.939 17.779 L 282.153 19.998 L 252.928 79.559 L 264.766 95.836 L 232.078 79.559 L 252.928 38.495 L 242.939 17.779 Z " fill="rgb(255,255,255)"/></g></g></svg>