<?xml version="1.0" encoding="UTF-8" standalone="no"?><!-- Generator: Gravit.io --><svg xmlns="http://www.w3.org/2000/svg" xmlns:xlink="http://www.w3.org/1999/xlink" style="isolation:isolate" viewBox="0 0 512 512" width="512pt" height="512pt"><defs><clipPath id="_clipPath_1PcAz4VQQVm0pbeqU8a3RXRHiHMUI6r7"><rect width="512" height="512"/></clipPath></defs><g clip-path="url(#_clipPath_1PcAz4VQQVm0pbeqU8a3RXRHiHMUI6r7)"><path d=" M 454.933 198.571 C 438.763 198.571 424.533 205.376 414.059 215.979 C 375.552 188.928 323.627 171.52 266.091 169.664 L 295.979 33.003 L 391.147 54.677 C 391.147 78.315 410.133 97.621 433.429 97.621 C 457.173 97.621 476.267 77.803 476.267 54.144 C 476.267 30.485 457.301 10.667 433.451 10.667 C 416.832 10.667 402.496 20.843 395.349 34.752 L 290.24 11.115 C 284.949 9.685 279.765 13.525 278.357 18.901 L 245.547 169.557 C 188.459 171.968 137.088 189.355 98.453 216.427 C 87.979 205.376 73.195 198.571 57.024 198.571 C -2.965 198.571 -22.613 280.256 32.32 308.181 C 30.379 316.821 29.504 326.037 29.504 335.232 C 29.504 426.987 131.371 501.333 256.448 501.333 C 382.059 501.333 483.925 426.987 483.925 335.232 C 483.925 326.037 482.965 316.395 480.597 307.733 C 534.421 279.701 514.603 198.613 454.933 198.571 Z  M 119.488 313.984 C 119.488 289.899 138.475 270.507 162.325 270.507 C 185.621 270.507 204.629 289.771 204.629 313.984 C 204.629 337.643 185.643 356.928 162.325 356.928 C 138.581 357.035 119.488 337.643 119.488 313.984 Z  M 350.72 416.341 C 311.445 456.192 200.619 456.192 161.323 416.341 C 156.992 412.501 156.992 405.717 161.323 401.344 C 165.099 397.504 171.797 397.504 175.573 401.344 C 205.568 432.555 305.067 433.088 336.363 401.344 C 340.139 397.504 346.837 397.504 350.613 401.344 C 355.029 405.739 355.029 412.523 350.72 416.341 Z  M 349.845 357.013 C 326.549 357.013 307.563 337.749 307.563 314.112 C 307.563 290.027 326.549 270.635 349.845 270.635 C 373.589 270.635 392.683 289.899 392.683 314.112 C 392.576 337.643 373.589 357.013 349.845 357.013 Z " fill="rgb(255,255,255)"/></g></svg>