<?xml version="1.0" standalone="no"?>
<svg
  width="600"
  height="600"
  viewBox="0 0 600 600"
  xmlns="http://www.w3.org/2000/svg"
>
  <g transform="translate(300,300)">
    <path d="M122.6,-144.9C163.3,-111.9,203.7,-77.5,212,-36.5C220.3,4.5,196.3,52,166,87.7C135.6,123.3,98.9,147.2,54.4,174.1C9.8,201.1,-42.6,231.2,-82,219.4C-121.4,207.7,-147.7,154.1,-176,102.8C-204.4,51.4,-234.6,2.4,-235.8,-50.4C-237,-103.1,-209.1,-159.6,-165,-192C-120.8,-224.3,-60.4,-232.7,-9.7,-221.1C40.9,-209.4,81.8,-177.9,122.6,-144.9Z" fill="#3b3478" />
  </g>
</svg>
  