<?xml version="1.0" standalone="no"?><!-- Generator: Gravit.io --><svg xmlns="http://www.w3.org/2000/svg" xmlns:xlink="http://www.w3.org/1999/xlink" style="isolation:isolate" viewBox="0 0 722.835 722.835" width="722.835" height="722.835"><defs><clipPath id="_clipPath_rf5cIPvGKHPzxEzMMsDDvLDaZuponttA"><rect width="722.835" height="722.835"/></clipPath></defs><g clip-path="url(#_clipPath_rf5cIPvGKHPzxEzMMsDDvLDaZuponttA)"><g><path d=" M 159.105 552.669 C 168.034 535.174 171.948 506.312 170.811 466.047 C 122.175 355.019 190.672 298.79 236.362 421.983 L 291.373 435.612 C 295.654 324.374 321.784 270.259 376.738 273.232 C 405.054 282.966 462.076 284.05 547.733 276.415 C 578.91 270.137 588.676 285.366 576.997 322.068 C 616.745 324.606 635.486 279.356 633.184 186.282 C 628.532 199.905 622.301 206.94 614.455 207.352 C 623.099 174.315 619.208 146.623 602.749 124.242 C 608.369 146.723 604.478 167.414 591.044 186.282 C 592.302 115.756 569.293 70.896 521.98 51.667 C 521.515 79.777 513.723 103.981 498.569 124.242 C 507.018 104.241 509.761 86.694 506.763 71.567 C 488.363 90.57 465.354 105.408 437.7 116.048 C 453.108 98.413 461.314 83.597 462.281 71.567 C 407.756 106.275 364.457 112.92 313.62 107.854 C 245.568 107.479 184.71 142.217 149.741 195.646 L 149.741 171.065 C 66.354 268.646 69.488 395.859 159.105 552.669 L 159.105 552.669 L 159.105 552.669 Z  M 318.976 388.245 C 322.554 370.866 429.9 359.109 466.705 388.245 C 486.129 459.298 447.826 525.822 348.113 510.927 C 313.524 497.295 303.823 456.413 318.976 388.245 L 318.976 388.245 L 318.976 388.245 Z  M 387.232 580.69 C 410.853 572.916 433.756 550.324 450.403 540.327 C 467.05 530.33 490.868 548.888 471.575 568.249 C 452.282 587.609 428.268 584.727 387.232 580.69 L 387.232 580.69 L 387.232 580.69 Z  M 577.384 588.491 C 557.475 578.519 527.296 565.169 511.457 543.814 C 495.618 522.459 470.861 551.632 489.365 568.249 C 507.869 584.865 535.841 587.196 577.384 588.491 L 577.384 588.491 L 577.384 588.491 Z  M 458.796 624.651 C 471.743 611 487.261 611.011 505.312 624.651 C 498.424 638.133 504.592 653.65 523.784 671.168 C 479.924 670.997 458.273 655.504 458.796 624.651 L 458.796 624.651 L 458.796 624.651 Z  M 596.642 394.742 C 594.488 383.824 534.504 382.63 512.343 400.934 C 500.648 445.569 500.973 487.359 561.011 478.002 C 581.838 469.439 605.766 437.565 596.642 394.742 L 596.642 394.742 Z  M 626.19 382.623 C 622.98 368.295 521.996 367.583 488.978 391.602 C 471.552 450.176 479.995 513.493 569.45 501.214 C 600.481 489.977 639.784 438.818 626.19 382.623 L 626.19 382.623 L 626.19 382.623 Z  M 344.203 399.814 C 346.605 386.57 418.651 377.611 443.352 399.814 C 456.389 453.96 430.682 504.653 363.758 493.302 C 340.544 482.915 334.033 451.761 344.203 399.814 Z " fill-rule="evenodd" fill="rgb(0,0,0)"/></g></g></svg>